<?xml version="1.0" encoding="UTF-8"?>
<!DOCTYPE svg PUBLIC "-//W3C//DTD SVG 1.1//EN" "http://www.w3.org/Graphics/SVG/1.1/DTD/svg11.dtd">
<svg xmlns="http://www.w3.org/2000/svg" version="1.1" width="266px" height="173px" style="shape-rendering:geometricPrecision; text-rendering:geometricPrecision; image-rendering:optimizeQuality; fill-rule:evenodd; clip-rule:evenodd" xmlns:xlink="http://www.w3.org/1999/xlink">
<g><path style="opacity:0.765" fill="#5489b4" d="M 24.5,2.5 C 32.6499,1.50728 40.9832,1.17395 49.5,1.5C 49.7947,3.73535 49.4614,5.73535 48.5,7.5C 48.5,5.83333 48.5,4.16667 48.5,2.5C 40.5,2.5 32.5,2.5 24.5,2.5 Z"/></g>
<g><path style="opacity:1" fill="#1b5c97" d="M 24.5,2.5 C 32.5,2.5 40.5,2.5 48.5,2.5C 48.5,4.16667 48.5,5.83333 48.5,7.5C 46.8736,21.9128 45.0403,36.2461 43,50.5C 53.7726,42.0999 65.9393,39.2666 79.5,42C 102.529,50.5418 111.696,67.0418 107,91.5C 100.295,118.844 82.9612,133.844 55,136.5C 45.5073,136.67 37.174,133.67 30,127.5C 28.7225,129.747 27.2225,131.747 25.5,133.5C 18.5,133.5 11.5,133.5 4.5,133.5C 4.5,132.5 4.5,131.5 4.5,130.5C 10.5384,87.6107 17.205,44.9441 24.5,2.5 Z M 56.5,64.5 C 72.1574,62.6711 80.824,69.5044 82.5,85C 81.0984,102.067 71.9317,111.567 55,113.5C 43.2192,113.219 36.7192,107.219 35.5,95.5C 35.364,80.0489 42.364,69.7156 56.5,64.5 Z"/></g>
<g><path style="opacity:1" fill="#2a619b" d="M 135.5,30.5 C 135.027,29.0937 134.027,28.427 132.5,28.5C 127.409,18.5951 129.743,10.7618 139.5,5C 149.646,1.73748 155.979,5.23748 158.5,15.5C 155.972,28.9084 148.305,33.9084 135.5,30.5 Z"/></g>
<g><path style="opacity:0.529" fill="#97b5d1" d="M 132.5,28.5 C 134.027,28.427 135.027,29.0937 135.5,30.5C 133.973,30.573 132.973,29.9063 132.5,28.5 Z"/></g>
<g><path style="opacity:1" fill="#1b5c97" d="M 187.5,130.5 C 187.027,129.094 186.027,128.427 184.5,128.5C 183.883,128.389 183.383,128.056 183,127.5C 181.249,140.594 179.082,153.594 176.5,166.5C 175.596,167.209 175.263,168.209 175.5,169.5C 167.5,169.5 159.5,169.5 151.5,169.5C 151.5,168.5 151.5,167.5 151.5,166.5C 157.447,126.151 163.614,85.8175 170,45.5C 173.571,44.2084 177.405,43.5417 181.5,43.5C 185.167,43.8333 188.833,44.1667 192.5,44.5C 193.333,46.1667 194.167,47.8333 195,49.5C 195.671,48.7476 196.504,48.4142 197.5,48.5C 199.027,48.573 200.027,47.9063 200.5,46.5C 204.106,44.2072 208.106,42.7072 212.5,42C 241.482,38.6327 257.815,51.2994 261.5,80C 259.453,107.131 245.786,125.464 220.5,135C 213.567,136.506 206.567,136.839 199.5,136C 195.05,134.939 191.05,133.105 187.5,130.5 Z M 226.5,66.5 C 227.167,67.8333 228.167,68.8333 229.5,69.5C 235.543,76.8744 237.043,85.2077 234,94.5C 226.014,111.827 213.18,116.993 195.5,110C 188.211,101.877 186.711,92.7102 191,82.5C 197.815,66.4916 209.648,61.1583 226.5,66.5 Z"/></g>
<g><path style="opacity:1" fill="#215d98" d="M 138.5,131.5 C 134.42,132.768 130.086,133.435 125.5,133.5C 121.107,133.491 117.107,132.824 113.5,131.5C 117.555,103.503 121.721,75.5035 126,47.5C 126.309,46.2341 126.809,45.0674 127.5,44C 135.5,43.3333 143.5,43.3333 151.5,44C 148.095,73.1728 143.762,102.339 138.5,131.5 Z"/></g>
<g><path style="opacity:0.918" fill="#8baac9" d="M 200.5,46.5 C 200.027,47.9063 199.027,48.573 197.5,48.5C 197.973,47.0937 198.973,46.427 200.5,46.5 Z"/></g>
<g><path style="opacity:0.957" fill="#92accb" d="M 226.5,66.5 C 228.5,66.5 229.5,67.5 229.5,69.5C 228.167,68.8333 227.167,67.8333 226.5,66.5 Z"/></g>
<g><path style="opacity:0.506" fill="#9ebad4" d="M 184.5,128.5 C 186.027,128.427 187.027,129.094 187.5,130.5C 185.973,130.573 184.973,129.906 184.5,128.5 Z"/></g>
<g><path style="opacity:0.257" fill="#c3d6e5" d="M 4.5,130.5 C 4.5,131.5 4.5,132.5 4.5,133.5C 11.5,133.5 18.5,133.5 25.5,133.5C 18.3524,134.492 11.0191,134.825 3.5,134.5C 3.23219,132.901 3.56552,131.568 4.5,130.5 Z"/></g>
<g><path style="opacity:0.253" fill="#c0d4e4" d="M 113.5,131.5 C 117.107,132.824 121.107,133.491 125.5,133.5C 130.086,133.435 134.42,132.768 138.5,131.5C 138.5,132.5 138.5,133.5 138.5,134.5C 129.833,134.5 121.167,134.5 112.5,134.5C 112.263,133.209 112.596,132.209 113.5,131.5 Z"/></g>
<g><path style="opacity:0.351" fill="#adc7db" d="M 151.5,166.5 C 151.5,167.5 151.5,168.5 151.5,169.5C 159.5,169.5 167.5,169.5 175.5,169.5C 175.263,168.209 175.596,167.209 176.5,166.5C 176.5,167.833 176.5,169.167 176.5,170.5C 167.833,170.5 159.167,170.5 150.5,170.5C 150.232,168.901 150.566,167.568 151.5,166.5 Z"/></g>
</svg>
