<?xml version="1.0" encoding="UTF-8"?>
<!DOCTYPE svg PUBLIC "-//W3C//DTD SVG 1.1//EN" "http://www.w3.org/Graphics/SVG/1.1/DTD/svg11.dtd">
<svg xmlns="http://www.w3.org/2000/svg" version="1.1" width="500px" height="138px" style="shape-rendering:geometricPrecision; text-rendering:geometricPrecision; image-rendering:optimizeQuality; fill-rule:evenodd; clip-rule:evenodd" xmlns:xlink="http://www.w3.org/1999/xlink">
<g><path style="opacity:0.992" fill="#f9f9f9" d="M 25.5,6.5 C 29.9017,6.22806 34.2351,6.56139 38.5,7.5C 39.9083,18.9136 38.9083,30.0802 35.5,41C 41.9687,39.2227 48.6354,38.0561 55.5,37.5C 69.9977,37.8226 79.4977,44.8226 84,58.5C 86.7185,75.0126 81.8852,88.846 69.5,100C 55.9693,109.504 41.4693,111.337 26,105.5C 19.6814,107.41 13.348,107.744 7,106.5C 6.33333,103.167 6.33333,99.8333 7,96.5C 10.8336,67.3263 15.5003,38.3263 21,9.5C 22.4087,8.21886 23.9087,7.21886 25.5,6.5 Z M 46.5,55.5 C 61.4275,54.938 66.9275,61.938 63,76.5C 57.8676,89.5441 48.701,93.7107 35.5,89C 31.6617,86.3231 29.995,82.6565 30.5,78C 30.3977,66.2945 35.7311,58.7945 46.5,55.5 Z"/></g>
<g><path style="opacity:0.986" fill="#f9f9f9" d="M 107.5,9.5 C 119.337,8.1625 123.837,13.1625 121,24.5C 118.415,29.13 114.415,31.4633 109,31.5C 102.932,30.9316 99.7651,27.5983 99.5,21.5C 99.7234,15.6824 102.39,11.6824 107.5,9.5 Z"/></g>
<g><path style="opacity:0.963" fill="#b8e1a2" d="M 313.5,34.5 C 313.5,35.1667 313.5,35.8333 313.5,36.5C 302.402,35.1814 291.402,35.1814 280.5,36.5C 279.5,36.8333 278.833,37.5 278.5,38.5C 278.167,38.5 277.833,38.5 277.5,38.5C 277.5,37.5 277.5,36.5 277.5,35.5C 277.611,34.8826 277.944,34.3826 278.5,34C 290.341,33.1739 302.007,33.3405 313.5,34.5 Z"/></g>
<g><path style="opacity:0.373" fill="#e4fbcc" d="M 253.5,34.5 C 255.764,40.2082 257.43,46.2082 258.5,52.5C 257.203,50.6287 256.203,48.6287 255.5,46.5C 255.634,44.7085 255.301,43.0418 254.5,41.5C 254.326,39.139 253.993,36.8056 253.5,34.5 Z"/></g>
<g><path style="opacity:1" fill="#81d65c" d="M 280.5,36.5 C 290.681,36.1726 300.681,36.506 310.5,37.5C 311.309,39.2922 311.809,41.2922 312,43.5C 312.667,66.8333 312.667,90.1667 312,113.5C 304.442,115.447 296.609,116.114 288.5,115.5C 288.5,113.833 288.5,112.167 288.5,110.5C 289.273,97.4961 289.94,84.3294 290.5,71C 290.418,67.7649 289.918,64.5982 289,61.5C 288.495,63.5183 287.995,65.5183 287.5,67.5C 286.89,68.391 286.557,69.391 286.5,70.5C 283.908,72.0361 282.908,74.3695 283.5,77.5C 283.167,77.5 282.833,77.5 282.5,77.5C 282.559,74.3095 282.893,71.1429 283.5,68C 283.419,65.4431 282.253,63.6098 280,62.5C 279.087,58.6384 279.42,54.9717 281,51.5C 281.333,54.1667 281.667,56.8333 282,59.5C 283.011,60.3366 284.178,60.67 285.5,60.5C 285.768,54.6182 285.434,48.7849 284.5,43C 285.509,41.8319 286.509,40.6652 287.5,39.5C 285.235,38.3526 282.902,38.1859 280.5,39C 279.915,40.3024 279.249,41.469 278.5,42.5C 278.5,41.1667 278.5,39.8333 278.5,38.5C 278.833,37.5 279.5,36.8333 280.5,36.5 Z"/></g>
<g><path style="opacity:1" fill="#7dd956" d="M 310.5,37.5 C 311.823,63.1682 311.823,88.8348 310.5,114.5C 304.19,113.81 297.857,113.476 291.5,113.5C 291.419,100.33 291.585,86.9963 292,73.5C 294.325,68.2877 293.491,63.6211 289.5,59.5C 288.336,53.5276 288.17,47.5276 289,41.5C 293.599,42.6938 298.099,42.6938 302.5,41.5C 297.88,40.5067 293.214,40.1734 288.5,40.5C 288.5,39.5 288.5,38.5 288.5,37.5C 295.833,37.5 303.167,37.5 310.5,37.5 Z"/></g>
<g><path style="opacity:1" fill="#7ed956" d="M 479.5,44.5 C 481.38,44.2291 482.713,44.8958 483.5,46.5C 484.031,48.5441 485.198,50.2107 487,51.5C 486.78,55.2479 488.113,58.2479 491,60.5C 492.275,68.4467 492.775,76.4467 492.5,84.5C 491.681,87.3054 491.181,90.3054 491,93.5C 487.868,95.7992 485.701,98.7992 484.5,102.5C 481.049,102.786 479.049,104.619 478.5,108C 475.678,109.622 472.678,110.789 469.5,111.5C 453.54,113.499 437.54,113.832 421.5,112.5C 420.167,111.5 420.167,110.5 421.5,109.5C 420.828,87.6791 420.161,65.8457 419.5,44C 421.003,42.0786 421.669,39.912 421.5,37.5C 423.527,37.3379 425.527,37.5045 427.5,38C 426.027,38.7096 425.36,39.8762 425.5,41.5C 432.517,42.4256 439.517,42.4256 446.5,41.5C 441.5,40.8333 436.5,40.1667 431.5,39.5C 431.291,38.914 430.957,38.414 430.5,38C 438.188,37.1685 445.855,37.3352 453.5,38.5C 452.271,39.2811 450.938,39.7811 449.5,40C 453.918,40.2077 458.251,40.8744 462.5,42C 463.071,43.2051 463.738,44.3717 464.5,45.5C 466.411,43.1135 468.911,42.1135 472,42.5C 474.603,42.9653 477.103,43.632 479.5,44.5 Z M 455.5,55.5 C 457.649,56.7362 459.982,57.7362 462.5,58.5C 462.328,59.4916 462.662,60.1583 463.5,60.5C 466.693,69.2389 467.36,78.2389 465.5,87.5C 463.804,91.3761 460.804,93.8761 456.5,95C 452.179,95.499 447.846,95.6657 443.5,95.5C 443.5,82.1667 443.5,68.8333 443.5,55.5C 447.5,55.5 451.5,55.5 455.5,55.5 Z"/></g>
<g><path style="opacity:0.991" fill="#f9f9f9" d="M 163.5,37.5 C 189.095,36.6909 200.595,49.0242 198,74.5C 192.438,95.0622 179.105,106.729 158,109.5C 152.065,108.957 146.565,107.457 141.5,105C 139.569,114.127 137.735,123.294 136,132.5C 135.5,133 135,133.5 134.5,134C 129.5,134.667 124.5,134.667 119.5,134C 118.584,133.626 117.75,133.126 117,132.5C 120.026,102.342 124.359,72.3425 130,42.5C 132.653,40.0593 135.82,39.0593 139.5,39.5C 143.146,39.4283 146.646,40.095 150,41.5C 154.6,40.0639 159.1,38.7305 163.5,37.5 Z M 163.5,55.5 C 173.818,55.8176 179.151,61.151 179.5,71.5C 175.838,87.6541 166.171,93.4874 150.5,89C 147.178,85.74 145.512,81.74 145.5,77C 146.031,72.0116 147.198,67.1783 149,62.5C 153.22,58.638 158.054,56.3047 163.5,55.5 Z"/></g>
<g><path style="opacity:0.989" fill="#f9f9f9" d="M 106.5,38.5 C 108.857,38.3367 111.19,38.5034 113.5,39C 115.736,39.7339 117.069,41.2339 117.5,43.5C 114.983,63.271 111.816,82.9376 108,102.5C 107.293,104.081 106.46,105.581 105.5,107C 100.167,107.667 94.8333,107.667 89.5,107C 87.9716,105.352 87.3049,103.352 87.5,101C 90.1713,82.8054 93.0047,64.6388 96,46.5C 97.4262,41.0434 100.926,38.3767 106.5,38.5 Z"/></g>
<g><path style="opacity:1" fill="#b6df9e" d="M 468.5,36.5 C 472.327,36.7516 475.66,38.0849 478.5,40.5C 476.5,40.5 474.5,40.5 472.5,40.5C 471.661,38.6161 470.328,37.2828 468.5,36.5 Z"/></g>
<g><path style="opacity:1" fill="#7ed856" d="M 218.5,36.5 C 229.167,36.5 239.833,36.5 250.5,36.5C 250.538,42.462 250.538,48.462 250.5,54.5C 251.524,53.1468 252.857,52.4802 254.5,52.5C 254.955,54.3666 255.622,56.1999 256.5,58C 256.561,59.7106 255.894,61.044 254.5,62C 256.23,63.8524 257.396,63.6857 258,61.5C 258.333,64.8333 258.667,68.1667 259,71.5C 259.383,70.944 259.883,70.6107 260.5,70.5C 260.833,70.5 261.167,70.5 261.5,70.5C 261.163,74.3076 261.663,77.9743 263,81.5C 264.667,82.8333 266.333,82.8333 268,81.5C 270.734,68.2277 274.234,55.2277 278.5,42.5C 279.249,41.469 279.915,40.3024 280.5,39C 282.902,38.1859 285.235,38.3526 287.5,39.5C 286.509,40.6652 285.509,41.8319 284.5,43C 285.434,48.7849 285.768,54.6182 285.5,60.5C 284.178,60.67 283.011,60.3366 282,59.5C 281.667,56.8333 281.333,54.1667 281,51.5C 279.42,54.9717 279.087,58.6384 280,62.5C 282.253,63.6098 283.419,65.4431 283.5,68C 282.893,71.1429 282.559,74.3095 282.5,77.5C 282.496,79.8421 281.663,81.8421 280,83.5C 278.976,91.9281 277.476,100.261 275.5,108.5C 274.649,110.71 273.316,112.71 271.5,114.5C 266.208,115.495 260.875,115.828 255.5,115.5C 253.647,111.427 252.48,107.093 252,102.5C 251.392,100.934 250.558,99.6002 249.5,98.5C 249.06,96.1561 248.06,94.1561 246.5,92.5C 246.622,86.8229 245.622,81.4895 243.5,76.5C 243.736,73.3915 243.403,70.3915 242.5,67.5C 241.217,65.3936 240.384,63.0602 240,60.5C 238.644,59.6198 237.144,59.2865 235.5,59.5C 236.132,76.3374 235.466,93.0041 233.5,109.5C 234.167,110.167 234.833,110.833 235.5,111.5C 234.632,113.397 233.299,114.73 231.5,115.5C 226.901,115.8 222.401,115.467 218,114.5C 217.213,88.4806 217.379,62.4806 218.5,36.5 Z"/></g>
<g><path style="opacity:0.741" fill="#d9f8c5" d="M 277.5,35.5 C 277.5,36.5 277.5,37.5 277.5,38.5C 275.483,45.2498 273.483,51.9165 271.5,58.5C 272.431,50.4377 274.431,42.7711 277.5,35.5 Z"/></g>
<g><path style="opacity:1" fill="#7dd955" d="M 357.5,53.5 C 356.508,53.3284 355.842,53.6618 355.5,54.5C 353.656,56.2789 352.99,58.6122 353.5,61.5C 350.856,63.516 350.023,66.1827 351,69.5C 351.561,70.0219 352.228,70.3552 353,70.5C 365.462,69.5288 377.962,69.1955 390.5,69.5C 390.662,71.5273 390.495,73.5273 390,75.5C 386.051,72.5574 383.884,73.5574 383.5,78.5C 385.262,78.6427 386.929,78.3094 388.5,77.5C 390.178,80.4742 389.345,82.1408 386,82.5C 382.563,80.9957 378.897,80.329 375,80.5C 370.154,80.9794 365.32,81.1461 360.5,81C 359.159,79.1735 359.659,78.0069 362,77.5C 363.872,78.0682 365.705,78.7349 367.5,79.5C 368.429,78.3112 368.762,76.9778 368.5,75.5C 363.96,73.8492 359.293,73.3492 354.5,74C 354.395,77.0783 354.395,80.5783 354.5,84.5C 353.673,89.6509 353.173,94.9842 353,100.5C 352.333,99.1667 351.667,99.1667 351,100.5C 350.506,102.134 350.34,103.801 350.5,105.5C 352.869,105.851 355.203,106.018 357.5,106C 356.692,103.912 355.692,101.912 354.5,100C 358.696,99.3809 362.696,100.048 366.5,102C 377.161,102.5 387.828,102.667 398.5,102.5C 398.5,103.5 398.5,104.5 398.5,105.5C 387.449,104.669 377.949,104.335 370,104.5C 369.5,105 369,105.5 368.5,106C 378.481,107.165 388.481,107.998 398.5,108.5C 398.5,110.167 398.5,111.833 398.5,113.5C 376.5,113.5 354.5,113.5 332.5,113.5C 332.5,88.5 332.5,63.5 332.5,38.5C 333.263,37.7321 334.263,37.2321 335.5,37C 356.497,36.5 377.497,36.3334 398.5,36.5C 398.5,41.8333 398.5,47.1667 398.5,52.5C 384.656,52.171 370.99,52.5043 357.5,53.5 Z"/></g>
<g><path style="opacity:1" fill="#80d65a" d="M 472.5,40.5 C 474.5,40.5 476.5,40.5 478.5,40.5C 479.234,41.7079 479.567,43.0413 479.5,44.5C 477.103,43.632 474.603,42.9653 472,42.5C 468.911,42.1135 466.411,43.1135 464.5,45.5C 463.738,44.3717 463.071,43.2051 462.5,42C 458.251,40.8744 453.918,40.2077 449.5,40C 450.938,39.7811 452.271,39.2811 453.5,38.5C 445.855,37.3352 438.188,37.1685 430.5,38C 430.957,38.414 431.291,38.914 431.5,39.5C 436.5,40.1667 441.5,40.8333 446.5,41.5C 439.517,42.4256 432.517,42.4256 425.5,41.5C 425.36,39.8762 426.027,38.7096 427.5,38C 425.527,37.5045 423.527,37.3379 421.5,37.5C 421.669,39.912 421.003,42.0786 419.5,44C 420.161,65.8457 420.828,87.6791 421.5,109.5C 420.167,110.5 420.167,111.5 421.5,112.5C 437.54,113.832 453.54,113.499 469.5,111.5C 467.5,112.167 465.5,112.833 463.5,113.5C 463.5,113.833 463.5,114.167 463.5,114.5C 448.818,114.833 434.152,114.499 419.5,113.5C 418.521,88.5829 418.188,63.5829 418.5,38.5C 419.025,37.8076 419.692,37.3076 420.5,37C 433.5,36.3333 446.5,36.3333 459.5,37C 463.808,38.3267 468.141,39.4934 472.5,40.5 Z"/></g>
<g><path style="opacity:1" fill="#83d55d" d="M 218.5,36.5 C 229.34,35.1762 240.34,35.1762 251.5,36.5C 251.957,38.5976 252.957,40.2642 254.5,41.5C 255.301,43.0418 255.634,44.7085 255.5,46.5C 256.911,54.5546 258.578,62.5546 260.5,70.5C 259.883,70.6107 259.383,70.944 259,71.5C 258.667,68.1667 258.333,64.8333 258,61.5C 257.396,63.6857 256.23,63.8524 254.5,62C 255.894,61.044 256.561,59.7106 256.5,58C 255.622,56.1999 254.955,54.3666 254.5,52.5C 252.857,52.4802 251.524,53.1468 250.5,54.5C 250.538,48.462 250.538,42.462 250.5,36.5C 239.833,36.5 229.167,36.5 218.5,36.5 Z"/></g>
<g><path style="opacity:0.931" fill="#c2e8ab" d="M 463.5,35.5 C 447.833,35.5 432.167,35.5 416.5,35.5C 416.5,62.1667 416.5,88.8333 416.5,115.5C 430.167,115.5 443.833,115.5 457.5,115.5C 457.5,115.833 457.5,116.167 457.5,116.5C 443.661,117.826 429.661,117.826 415.5,116.5C 414.342,89.5424 414.176,62.5424 415,35.5C 415.5,35 416,34.5 416.5,34C 422.5,33.8333 428.5,33.6667 434.5,33.5C 444.375,33.3698 454.042,34.0365 463.5,35.5 Z"/></g>
<g><path style="opacity:0.914" fill="#bce7ac" d="M 478.5,40.5 C 482.833,42.8333 486.167,46.1667 488.5,50.5C 486.833,49.1667 485.167,47.8333 483.5,46.5C 482.713,44.8958 481.38,44.2291 479.5,44.5C 479.567,43.0413 479.234,41.7079 478.5,40.5 Z"/></g>
<g><path style="opacity:0.968" fill="#c2e8b1" d="M 400.5,54.5 C 385.833,54.5 371.167,54.5 356.5,54.5C 356.5,58.1667 356.5,61.8333 356.5,65.5C 355.518,62.0381 355.185,58.3714 355.5,54.5C 355.842,53.6618 356.508,53.3284 357.5,53.5C 371.5,53.5 385.5,53.5 399.5,53.5C 399.5,47.5 399.5,41.5 399.5,35.5C 377.164,35.3334 354.831,35.5 332.5,36C 332,36.5 331.5,37 331,37.5C 330.5,61.1643 330.333,84.831 330.5,108.5C 330.232,111.119 330.565,113.619 331.5,116C 354.498,116.5 377.498,116.667 400.5,116.5C 377.337,117.663 354.004,117.83 330.5,117C 330,116.5 329.5,116 329,115.5C 328.333,88.8333 328.333,62.1667 329,35.5C 329.5,35 330,34.5 330.5,34C 353.84,33.1669 377.174,33.3335 400.5,34.5C 401.83,41.1966 401.83,47.8633 400.5,54.5 Z"/></g>
<g><path style="opacity:1" fill="#8dd46a" d="M 447.5,51.5 C 451.226,51.1774 454.893,51.5108 458.5,52.5C 459.824,53.9347 461.49,54.9347 463.5,55.5C 464.174,57.1955 464.841,58.8621 465.5,60.5C 464.833,60.5 464.167,60.5 463.5,60.5C 462.662,60.1583 462.328,59.4916 462.5,58.5C 460.964,55.9078 458.631,54.9078 455.5,55.5C 455.5,55.1667 455.5,54.8333 455.5,54.5C 452.523,54.0984 449.857,53.0984 447.5,51.5 Z"/></g>
<g><path style="opacity:1" fill="#88d065" d="M 357.5,53.5 C 370.99,52.5043 384.656,52.171 398.5,52.5C 398.5,47.1667 398.5,41.8333 398.5,36.5C 377.497,36.3334 356.497,36.5 335.5,37C 334.263,37.2321 333.263,37.7321 332.5,38.5C 331.502,61.6607 331.169,84.994 331.5,108.5C 331.167,108.5 330.833,108.5 330.5,108.5C 330.333,84.831 330.5,61.1643 331,37.5C 331.5,37 332,36.5 332.5,36C 354.831,35.5 377.164,35.3334 399.5,35.5C 399.5,41.5 399.5,47.5 399.5,53.5C 385.5,53.5 371.5,53.5 357.5,53.5 Z"/></g>
<g><path style="opacity:0.271" fill="#ddfdd9" d="M 488.5,50.5 C 489.906,50.9731 490.573,51.9731 490.5,53.5C 489.833,53.1667 489.167,52.8333 488.5,52.5C 488.5,51.8333 488.5,51.1667 488.5,50.5 Z"/></g>
<g><path style="opacity:0.98" fill="#abdb92" d="M 255.5,46.5 C 256.203,48.6287 257.203,50.6287 258.5,52.5C 260.632,59.3621 262.299,66.3621 263.5,73.5C 262.833,72.5 262.167,71.5 261.5,70.5C 261.167,70.5 260.833,70.5 260.5,70.5C 258.578,62.5546 256.911,54.5546 255.5,46.5 Z"/></g>
<g><path style="opacity:0.996" fill="#c7f1b5" d="M 455.5,55.5 C 458.631,54.9078 460.964,55.9078 462.5,58.5C 459.982,57.7362 457.649,56.7362 455.5,55.5 Z"/></g>
<g><path style="opacity:1" fill="#8acf6b" d="M 483.5,46.5 C 485.167,47.8333 486.833,49.1667 488.5,50.5C 488.5,51.1667 488.5,51.8333 488.5,52.5C 490.467,56.096 492.134,59.7627 493.5,63.5C 493.825,70.6866 493.491,77.6866 492.5,84.5C 492.775,76.4467 492.275,68.4467 491,60.5C 488.113,58.2479 486.78,55.2479 487,51.5C 485.198,50.2107 484.031,48.5441 483.5,46.5 Z"/></g>
<g><path style="opacity:0.871" fill="#c7eeb4" d="M 488.5,52.5 C 489.167,52.8333 489.833,53.1667 490.5,53.5C 492.605,56.4083 493.605,59.7417 493.5,63.5C 492.134,59.7627 490.467,56.096 488.5,52.5 Z"/></g>
<g><path style="opacity:1" fill="#95d275" d="M 277.5,38.5 C 277.833,38.5 278.167,38.5 278.5,38.5C 278.5,39.8333 278.5,41.1667 278.5,42.5C 274.234,55.2277 270.734,68.2277 268,81.5C 266.333,82.8333 264.667,82.8333 263,81.5C 261.663,77.9743 261.163,74.3076 261.5,70.5C 262.167,71.5 262.833,72.5 263.5,73.5C 264.434,74.5676 264.768,75.901 264.5,77.5C 264.706,79.5492 265.539,79.8825 267,78.5C 267.494,76.8659 267.66,75.1992 267.5,73.5C 267.5,73.1667 267.5,72.8333 267.5,72.5C 269.41,69.5475 270.41,66.2142 270.5,62.5C 270.232,60.901 270.566,59.5676 271.5,58.5C 273.483,51.9165 275.483,45.2498 277.5,38.5 Z"/></g>
<g><path style="opacity:0.644" fill="#cdefbf" d="M 313.5,34.5 C 314.117,34.6107 314.617,34.944 315,35.5C 315.167,38.6667 315.333,41.8333 315.5,45C 314.207,68.2441 314.207,91.2441 315.5,114C 314.934,114.995 314.267,115.828 313.5,116.5C 313.5,89.8333 313.5,63.1667 313.5,36.5C 313.5,35.8333 313.5,35.1667 313.5,34.5 Z"/></g>
<g><path style="opacity:1" fill="#87d264" d="M 463.5,35.5 C 465.415,35.2155 467.081,35.5489 468.5,36.5C 470.328,37.2828 471.661,38.6161 472.5,40.5C 468.141,39.4934 463.808,38.3267 459.5,37C 446.5,36.3333 433.5,36.3333 420.5,37C 419.692,37.3076 419.025,37.8076 418.5,38.5C 418.188,63.5829 418.521,88.5829 419.5,113.5C 434.152,114.499 448.818,114.833 463.5,114.5C 461.735,115.461 459.735,115.795 457.5,115.5C 443.833,115.5 430.167,115.5 416.5,115.5C 416.5,88.8333 416.5,62.1667 416.5,35.5C 432.167,35.5 447.833,35.5 463.5,35.5 Z"/></g>
<g><path style="opacity:1" fill="#8bd06d" d="M 447.5,51.5 C 449.857,53.0984 452.523,54.0984 455.5,54.5C 450.901,54.2 446.401,54.5333 442,55.5C 441.173,69.3396 441.339,83.0062 442.5,96.5C 447.305,97.4872 452.305,97.8205 457.5,97.5C 453.501,98.3249 449.335,98.9916 445,99.5C 443.289,99.5607 441.956,98.8941 441,97.5C 440.779,84.148 440.279,70.8147 439.5,57.5C 440.734,53.6002 443.401,51.6002 447.5,51.5 Z"/></g>
<g><path style="opacity:1" fill="#97d37b" d="M 280.5,36.5 C 291.402,35.1814 302.402,35.1814 313.5,36.5C 313.5,63.1667 313.5,89.8333 313.5,116.5C 305.245,117.634 296.912,117.801 288.5,117C 287.944,116.617 287.611,116.117 287.5,115.5C 287.833,115.5 288.167,115.5 288.5,115.5C 296.609,116.114 304.442,115.447 312,113.5C 312.667,90.1667 312.667,66.8333 312,43.5C 311.809,41.2922 311.309,39.2922 310.5,37.5C 300.681,36.506 290.681,36.1726 280.5,36.5 Z"/></g>
<g><path style="opacity:0.302" fill="#e6fdd9" d="M 400.5,54.5 C 386.343,55.4959 372.01,55.8293 357.5,55.5C 357.5,58.5 357.5,61.5 357.5,64.5C 370.212,63.8536 382.545,64.5203 394.5,66.5C 381.913,65.5202 369.246,65.1869 356.5,65.5C 356.5,61.8333 356.5,58.1667 356.5,54.5C 371.167,54.5 385.833,54.5 400.5,54.5 Z"/></g>
<g><path style="opacity:0.871" fill="#d8f7c2" d="M 270.5,62.5 C 270.41,66.2142 269.41,69.5475 267.5,72.5C 267.723,68.8379 268.723,65.5046 270.5,62.5 Z"/></g>
<g><path style="opacity:0.98" fill="#abd697" d="M 356.5,65.5 C 369.246,65.1869 381.913,65.5202 394.5,66.5C 395.652,71.9846 395.818,77.6513 395,83.5C 394.617,84.056 394.117,84.3893 393.5,84.5C 392.833,84.5 392.167,84.5 391.5,84.5C 393.708,79.0945 394.042,73.4279 392.5,67.5C 380.372,66.8521 368.372,66.1855 356.5,65.5 Z"/></g>
<g><path style="opacity:1" fill="#8ed16e" d="M 355.5,54.5 C 355.185,58.3714 355.518,62.0381 356.5,65.5C 368.372,66.1855 380.372,66.8521 392.5,67.5C 394.042,73.4279 393.708,79.0945 391.5,84.5C 379.833,84.5 368.167,84.5 356.5,84.5C 367.659,83.6694 378.993,83.1694 390.5,83C 391.469,78.2633 391.803,73.43 391.5,68.5C 378.811,67.7544 366.144,67.421 353.5,67.5C 353.5,65.5 353.5,63.5 353.5,61.5C 352.99,58.6122 353.656,56.2789 355.5,54.5 Z"/></g>
<g><path style="opacity:0.243" fill="#d7fdbf" d="M 287.5,67.5 C 288.473,69.9479 288.806,72.6146 288.5,75.5C 288.167,75.5 287.833,75.5 287.5,75.5C 286.833,75.8333 286.167,76.1667 285.5,76.5C 285.833,74.5 286.167,72.5 286.5,70.5C 286.557,69.391 286.89,68.391 287.5,67.5 Z"/></g>
<g><path style="opacity:0.592" fill="#d1f7bf" d="M 463.5,60.5 C 464.167,60.5 464.833,60.5 465.5,60.5C 468.071,69.6445 468.071,78.6445 465.5,87.5C 467.36,78.2389 466.693,69.2389 463.5,60.5 Z"/></g>
<g><path style="opacity:0.965" fill="#c4eaaf" d="M 253.5,34.5 C 253.993,36.8056 254.326,39.139 254.5,41.5C 252.957,40.2642 251.957,38.5976 251.5,36.5C 240.34,35.1762 229.34,35.1762 218.5,36.5C 217.883,36.6107 217.383,36.944 217,37.5C 216.5,63.8312 216.333,90.1646 216.5,116.5C 215.883,116.389 215.383,116.056 215,115.5C 214.167,88.4938 214.333,61.4938 215.5,34.5C 228.196,33.1683 240.863,33.1683 253.5,34.5 Z"/></g>
<g><path style="opacity:1" fill="#81d65a" d="M 353.5,61.5 C 353.5,63.5 353.5,65.5 353.5,67.5C 366.144,67.421 378.811,67.7544 391.5,68.5C 391.803,73.43 391.469,78.2633 390.5,83C 378.993,83.1694 367.659,83.6694 356.5,84.5C 355.833,84.5 355.167,84.5 354.5,84.5C 354.395,80.5783 354.395,77.0783 354.5,74C 359.293,73.3492 363.96,73.8492 368.5,75.5C 368.762,76.9778 368.429,78.3112 367.5,79.5C 365.705,78.7349 363.872,78.0682 362,77.5C 359.659,78.0069 359.159,79.1735 360.5,81C 365.32,81.1461 370.154,80.9794 375,80.5C 378.897,80.329 382.563,80.9957 386,82.5C 389.345,82.1408 390.178,80.4742 388.5,77.5C 386.929,78.3094 385.262,78.6427 383.5,78.5C 383.884,73.5574 386.051,72.5574 390,75.5C 390.495,73.5273 390.662,71.5273 390.5,69.5C 377.962,69.1955 365.462,69.5288 353,70.5C 352.228,70.3552 351.561,70.0219 351,69.5C 350.023,66.1827 350.856,63.516 353.5,61.5 Z"/></g>
<g><path style="opacity:0.559" fill="#c7eab4" d="M 493.5,63.5 C 494.166,67.3188 494.499,71.3188 494.5,75.5C 494.695,81.4173 494.029,87.084 492.5,92.5C 492.5,89.8333 492.5,87.1667 492.5,84.5C 493.491,77.6866 493.825,70.6866 493.5,63.5 Z"/></g>
<g><path style="opacity:1" fill="#82d55c" d="M 242.5,67.5 C 241.85,67.1961 241.183,66.8627 240.5,66.5C 238.772,59.2038 237.772,59.0372 237.5,66C 238.416,82.4851 238.75,98.9851 238.5,115.5C 236.167,115.5 233.833,115.5 231.5,115.5C 233.299,114.73 234.632,113.397 235.5,111.5C 234.833,110.833 234.167,110.167 233.5,109.5C 235.466,93.0041 236.132,76.3374 235.5,59.5C 237.144,59.2865 238.644,59.6198 240,60.5C 240.384,63.0602 241.217,65.3936 242.5,67.5 Z"/></g>
<g><path style="opacity:0.965" fill="#9fd284" d="M 286.5,70.5 C 286.167,72.5 285.833,74.5 285.5,76.5C 284.964,80.3139 283.964,83.9806 282.5,87.5C 281.833,88.1667 281.167,88.8333 280.5,89.5C 282.088,85.6536 283.088,81.6536 283.5,77.5C 282.908,74.3695 283.908,72.0361 286.5,70.5 Z"/></g>
<g><path style="opacity:0.475" fill="#d1f8bb" d="M 267.5,73.5 C 267.66,75.1992 267.494,76.8659 267,78.5C 265.539,79.8825 264.706,79.5492 264.5,77.5C 265.857,76.4097 266.857,75.0764 267.5,73.5 Z"/></g>
<g><path style="opacity:1" fill="#89d06c" d="M 465.5,60.5 C 467.247,61.9807 468.414,63.9807 469,66.5C 470.157,75.0847 469.491,83.418 467,91.5C 466.329,92.2524 465.496,92.5858 464.5,92.5C 465.301,90.9582 465.634,89.2915 465.5,87.5C 468.071,78.6445 468.071,69.6445 465.5,60.5 Z"/></g>
<g><path style="opacity:1" fill="#8cd46d" d="M 288.5,110.5 C 288.5,98.8333 288.5,87.1667 288.5,75.5C 288.806,72.6146 288.473,69.9479 287.5,67.5C 287.995,65.5183 288.495,63.5183 289,61.5C 289.918,64.5982 290.418,67.7649 290.5,71C 289.94,84.3294 289.273,97.4961 288.5,110.5 Z"/></g>
<g><path style="opacity:1" fill="#9cd583" d="M 354.5,84.5 C 355.167,84.5 355.833,84.5 356.5,84.5C 356.5,88.5 356.5,92.5 356.5,96.5C 355.883,96.3893 355.383,96.056 355,95.5C 354.501,91.8484 354.335,88.1817 354.5,84.5 Z"/></g>
<g><path style="opacity:0.702" fill="#cbedb8" d="M 282.5,87.5 C 282.279,90.0673 281.612,92.4006 280.5,94.5C 280.5,92.8333 280.5,91.1667 280.5,89.5C 281.167,88.8333 281.833,88.1667 282.5,87.5 Z"/></g>
<g><path style="opacity:0.946" fill="#bfebab" d="M 287.5,75.5 C 287.833,75.5 288.167,75.5 288.5,75.5C 288.5,87.1667 288.5,98.8333 288.5,110.5C 288.5,112.167 288.5,113.833 288.5,115.5C 288.167,115.5 287.833,115.5 287.5,115.5C 286.4,102.23 286.4,88.897 287.5,75.5 Z"/></g>
<g><path style="opacity:0.713" fill="#c3e8b1" d="M 243.5,76.5 C 245.622,81.4895 246.622,86.8229 246.5,92.5C 244.804,86.9098 242.971,81.2431 241,75.5C 240.831,89.3395 240.331,103.006 239.5,116.5C 239.333,100.497 239.5,84.4965 240,68.5C 241.478,71.1579 242.645,73.8245 243.5,76.5 Z"/></g>
<g><path style="opacity:0.994" fill="#8fce70" d="M 282.5,77.5 C 282.833,77.5 283.167,77.5 283.5,77.5C 283.088,81.6536 282.088,85.6536 280.5,89.5C 280.5,91.1667 280.5,92.8333 280.5,94.5C 279.076,96.5145 278.41,98.8478 278.5,101.5C 278.567,102.959 278.234,104.292 277.5,105.5C 276.833,106.5 276.167,107.5 275.5,108.5C 277.476,100.261 278.976,91.9281 280,83.5C 281.663,81.8421 282.496,79.8421 282.5,77.5 Z"/></g>
<g><path style="opacity:0.265" fill="#e4fedc" d="M 356.5,84.5 C 368.167,84.5 379.833,84.5 391.5,84.5C 392.167,84.5 392.833,84.5 393.5,84.5C 381.678,85.4951 369.678,85.8284 357.5,85.5C 357.5,88.8333 357.5,92.1667 357.5,95.5C 372.343,95.1707 387.01,95.504 401.5,96.5C 386.5,96.5 371.5,96.5 356.5,96.5C 356.5,92.5 356.5,88.5 356.5,84.5 Z"/></g>
<g><path style="opacity:0.341" fill="#d9f4c1" d="M 455.5,54.5 C 455.5,54.8333 455.5,55.1667 455.5,55.5C 451.5,55.5 447.5,55.5 443.5,55.5C 443.5,68.8333 443.5,82.1667 443.5,95.5C 447.846,95.6657 452.179,95.499 456.5,95C 460.804,93.8761 463.804,91.3761 465.5,87.5C 465.634,89.2915 465.301,90.9582 464.5,92.5C 463.833,92.5 463.5,92.8333 463.5,93.5C 461.811,94.9307 459.811,95.7641 457.5,96C 452.511,96.4993 447.511,96.6659 442.5,96.5C 441.339,83.0062 441.173,69.3396 442,55.5C 446.401,54.5333 450.901,54.2 455.5,54.5 Z"/></g>
<g><path style="opacity:1" fill="#95d378" d="M 492.5,84.5 C 492.5,87.1667 492.5,89.8333 492.5,92.5C 492.34,94.153 491.674,95.4863 490.5,96.5C 488.273,97.4006 487.273,99.0672 487.5,101.5C 486.094,101.973 485.427,102.973 485.5,104.5C 481.893,109.1 477.226,112.1 471.5,113.5C 468.833,113.5 466.167,113.5 463.5,113.5C 465.5,112.833 467.5,112.167 469.5,111.5C 472.678,110.789 475.678,109.622 478.5,108C 479.049,104.619 481.049,102.786 484.5,102.5C 485.701,98.7992 487.868,95.7992 491,93.5C 491.181,90.3054 491.681,87.3054 492.5,84.5 Z"/></g>
<g><path style="opacity:0.529" fill="#c8edae" d="M 246.5,92.5 C 248.06,94.1561 249.06,96.1561 249.5,98.5C 249.5,99.8333 249.5,101.167 249.5,102.5C 247.899,99.4498 246.899,96.1165 246.5,92.5 Z"/></g>
<g><path style="opacity:0.935" fill="#b8e4a1" d="M 356.5,96.5 C 371.5,96.5 386.5,96.5 401.5,96.5C 402.833,102.833 402.833,109.167 401.5,115.5C 401.821,110.305 401.487,105.305 400.5,100.5C 400.5,99.5 400.5,98.5 400.5,97.5C 386.167,97.5 371.833,97.5 357.5,97.5C 356.833,97.5 356.5,97.1667 356.5,96.5 Z"/></g>
<g><path style="opacity:1" fill="#9bd37f" d="M 463.5,93.5 C 462.513,96.0858 460.513,97.4191 457.5,97.5C 452.305,97.8205 447.305,97.4872 442.5,96.5C 447.511,96.6659 452.511,96.4993 457.5,96C 459.811,95.7641 461.811,94.9307 463.5,93.5 Z"/></g>
<g><path style="opacity:1" fill="#8ccf68" d="M 357.5,97.5 C 371.833,97.5 386.167,97.5 400.5,97.5C 400.5,98.5 400.5,99.5 400.5,100.5C 400.818,105.032 400.485,109.366 399.5,113.5C 399.803,108.57 399.469,103.737 398.5,99C 384.661,98.8311 370.994,98.3311 357.5,97.5 Z"/></g>
<g><path style="opacity:0.514" fill="#d0f3b3" d="M 280.5,94.5 C 280.59,97.1522 279.924,99.4855 278.5,101.5C 278.41,98.8478 279.076,96.5145 280.5,94.5 Z"/></g>
<g><path style="opacity:0.498" fill="#bde7af" d="M 490.5,96.5 C 490.25,98.674 489.25,100.341 487.5,101.5C 487.273,99.0672 488.273,97.4006 490.5,96.5 Z"/></g>
<g><path style="opacity:1" fill="#97d579" d="M 218.5,36.5 C 217.379,62.4806 217.213,88.4806 218,114.5C 222.401,115.467 226.901,115.8 231.5,115.5C 233.833,115.5 236.167,115.5 238.5,115.5C 238.75,98.9851 238.416,82.4851 237.5,66C 237.772,59.0372 238.772,59.2038 240.5,66.5C 241.183,66.8627 241.85,67.1961 242.5,67.5C 243.403,70.3915 243.736,73.3915 243.5,76.5C 242.645,73.8245 241.478,71.1579 240,68.5C 239.5,84.4965 239.333,100.497 239.5,116.5C 231.833,117.833 224.167,117.833 216.5,116.5C 216.333,90.1646 216.5,63.8312 217,37.5C 217.383,36.944 217.883,36.6107 218.5,36.5 Z"/></g>
<g><path style="opacity:1" fill="#81d65b" d="M 332.5,38.5 C 332.5,63.5 332.5,88.5 332.5,113.5C 354.5,113.5 376.5,113.5 398.5,113.5C 398.5,111.833 398.5,110.167 398.5,108.5C 388.481,107.998 378.481,107.165 368.5,106C 369,105.5 369.5,105 370,104.5C 377.949,104.335 387.449,104.669 398.5,105.5C 398.5,104.5 398.5,103.5 398.5,102.5C 387.828,102.667 377.161,102.5 366.5,102C 362.696,100.048 358.696,99.3809 354.5,100C 355.692,101.912 356.692,103.912 357.5,106C 355.203,106.018 352.869,105.851 350.5,105.5C 350.34,103.801 350.506,102.134 351,100.5C 351.667,99.1667 352.333,99.1667 353,100.5C 353.173,94.9842 353.673,89.6509 354.5,84.5C 354.335,88.1817 354.501,91.8484 355,95.5C 355.383,96.056 355.883,96.3893 356.5,96.5C 356.5,97.1667 356.833,97.5 357.5,97.5C 370.994,98.3311 384.661,98.8311 398.5,99C 399.469,103.737 399.803,108.57 399.5,113.5C 388.687,114.832 377.521,115.499 366,115.5C 354.833,115.333 343.667,115.167 332.5,115C 331.577,112.959 331.244,110.792 331.5,108.5C 331.169,84.994 331.502,61.6607 332.5,38.5 Z"/></g>
<g><path style="opacity:0.137" fill="#caf0b2" d="M 487.5,101.5 C 487.573,103.027 486.906,104.027 485.5,104.5C 485.427,102.973 486.094,101.973 487.5,101.5 Z"/></g>
<g><path style="opacity:0.361" fill="#d9f8c8" d="M 249.5,102.5 C 251.199,106.954 252.533,111.62 253.5,116.5C 251.045,112.266 249.711,107.6 249.5,102.5 Z"/></g>
<g><path style="opacity:0.455" fill="#cef3bb" d="M 277.5,105.5 C 277.41,109.214 276.41,112.548 274.5,115.5C 274.993,113.194 275.326,110.861 275.5,108.5C 276.167,107.5 276.833,106.5 277.5,105.5 Z"/></g>
<g><path style="opacity:0.969" fill="#afde9b" d="M 463.5,113.5 C 466.167,113.5 468.833,113.5 471.5,113.5C 467.213,115.735 462.546,116.735 457.5,116.5C 457.5,116.167 457.5,115.833 457.5,115.5C 459.735,115.795 461.735,115.461 463.5,114.5C 463.5,114.167 463.5,113.833 463.5,113.5 Z"/></g>
<g><path style="opacity:0.948" fill="#a0d489" d="M 249.5,98.5 C 250.558,99.6002 251.392,100.934 252,102.5C 252.48,107.093 253.647,111.427 255.5,115.5C 260.875,115.828 266.208,115.495 271.5,114.5C 273.316,112.71 274.649,110.71 275.5,108.5C 275.326,110.861 274.993,113.194 274.5,115.5C 274.389,116.117 274.056,116.617 273.5,117C 266.753,117.792 260.086,117.626 253.5,116.5C 252.533,111.62 251.199,106.954 249.5,102.5C 249.5,101.167 249.5,99.8333 249.5,98.5 Z"/></g>
<g><path style="opacity:0.982" fill="#8fca75" d="M 400.5,100.5 C 401.487,105.305 401.821,110.305 401.5,115.5C 401.5,116.167 401.167,116.5 400.5,116.5C 377.498,116.667 354.498,116.5 331.5,116C 330.565,113.619 330.232,111.119 330.5,108.5C 330.833,108.5 331.167,108.5 331.5,108.5C 331.244,110.792 331.577,112.959 332.5,115C 343.667,115.167 354.833,115.333 366,115.5C 377.521,115.499 388.687,114.832 399.5,113.5C 400.485,109.366 400.818,105.032 400.5,100.5 Z"/></g>
</svg>
